<svg width="214" height="214" viewBox="0 0 214 214" fill="none" xmlns="http://www.w3.org/2000/svg">
<rect width="214" height="214" rx="45" fill="white"/>
<path d="M127.202 85.665H86.7611C85.044 85.665 83.6504 86.9682 83.6504 88.5758V126.416C83.6504 128.024 85.044 129.327 86.7611 129.327H127.202C128.92 129.327 130.313 128.024 130.313 126.416V88.5758C130.313 86.9682 128.92 85.665 127.202 85.665Z" fill="black"/>
<path d="M80.5505 42H40.1107C38.3924 42 37 43.3032 37 44.9108V82.7511C37 84.3586 38.3924 85.6619 40.1107 85.6619H80.5505C82.2687 85.6619 83.6623 84.3586 83.6623 82.7511V44.9108C83.6623 43.3032 82.2687 42 80.5505 42Z" fill="black"/>
<path d="M173.89 42H133.449C131.731 42 130.338 43.3032 130.338 44.9108V82.7511C130.338 84.3586 131.731 85.6619 133.449 85.6619H173.89C175.608 85.6619 177 84.3586 177 82.7511V44.9108C177 43.3032 175.608 42 173.89 42Z" fill="black"/>
<path d="M80.5505 129.326H40.1107C38.3924 129.326 37 130.629 37 132.236V170.077C37 171.684 38.3924 172.988 40.1107 172.988H80.5505C82.2687 172.988 83.6623 171.684 83.6623 170.077V132.236C83.6623 130.629 82.2687 129.326 80.5505 129.326Z" fill="black"/>
<path d="M173.89 129.326H133.449C131.731 129.326 130.338 130.629 130.338 132.236V170.077C130.338 171.684 131.731 172.988 133.449 172.988H173.89C175.608 172.988 177 171.684 177 170.077V132.236C177 130.629 175.608 129.326 173.89 129.326Z" fill="black"/>
</svg>
